<svg width="139" height="31" viewBox="0 0 139 31" fill="none" xmlns="http://www.w3.org/2000/svg">
<path d="M25.37 1.85V23H19.49V11.33L15.5 23H10.58L6.56 11.24V23H0.68V1.85H7.79L13.1 15.59L18.29 1.85H25.37ZM46.8371 6.17L36.1571 31.01H29.7671L33.7871 22.28L26.8871 6.17H33.4271L36.9671 15.71L40.3871 6.17H46.8371ZM61.8753 12.14C63.1153 12.42 64.0953 13.04 64.8153 14C65.5553 14.94 65.9253 16.02 65.9253 17.24C65.9253 19.04 65.3053 20.45 64.0653 21.47C62.8253 22.49 61.0853 23 58.8453 23H48.3753V1.85H58.5153C60.6753 1.85 62.3653 2.33 63.5853 3.29C64.8253 4.25 65.4453 5.6 65.4453 7.34C65.4453 8.58 65.1153 9.62 64.4553 10.46C63.8153 11.28 62.9553 11.84 61.8753 12.14ZM54.2553 10.25H57.2253C58.7053 10.25 59.4453 9.64 59.4453 8.42C59.4453 7.16 58.7053 6.53 57.2253 6.53H54.2553V10.25ZM57.6753 18.26C59.1553 18.26 59.8953 17.64 59.8953 16.4C59.8953 15.76 59.6953 15.27 59.2953 14.93C58.9153 14.59 58.3653 14.42 57.6453 14.42H54.2553V18.26H57.6753ZM74.3823 9.14C75.0423 8.18 75.8423 7.42 76.7823 6.86C77.7223 6.3 78.7323 6.02 79.8123 6.02V12.29H78.1623C76.8823 12.29 75.9323 12.54 75.3123 13.04C74.6923 13.54 74.3823 14.41 74.3823 15.65V23H68.5023V6.17H74.3823V9.14ZM98.0002 14.39C98.0002 14.85 97.9702 15.31 97.9102 15.77H86.7802C86.8402 16.69 87.0902 17.38 87.5302 17.84C87.9902 18.28 88.5702 18.5 89.2702 18.5C90.2502 18.5 90.9502 18.06 91.3702 17.18H97.6402C97.3802 18.34 96.8702 19.38 96.1102 20.3C95.3702 21.2 94.4302 21.91 93.2902 22.43C92.1502 22.95 90.8902 23.21 89.5102 23.21C87.8502 23.21 86.3702 22.86 85.0702 22.16C83.7902 21.46 82.7802 20.46 82.0402 19.16C81.3202 17.86 80.9602 16.33 80.9602 14.57C80.9602 12.81 81.3202 11.29 82.0402 10.01C82.7602 8.71 83.7602 7.71 85.0402 7.01C86.3402 6.31 87.8302 5.96 89.5102 5.96C91.1702 5.96 92.6402 6.3 93.9202 6.98C95.2002 7.66 96.2002 8.64 96.9202 9.92C97.6402 11.18 98.0002 12.67 98.0002 14.39ZM92.0002 12.92C92.0002 12.2 91.7602 11.64 91.2802 11.24C90.8002 10.82 90.2002 10.61 89.4802 10.61C88.7602 10.61 88.1702 10.81 87.7102 11.21C87.2502 11.59 86.9502 12.16 86.8102 12.92H92.0002ZM111.417 6.02C113.357 6.02 114.897 6.67 116.037 7.97C117.177 9.25 117.747 10.99 117.747 13.19V23H111.867V13.97C111.867 13.01 111.617 12.26 111.117 11.72C110.617 11.16 109.947 10.88 109.107 10.88C108.227 10.88 107.537 11.16 107.037 11.72C106.537 12.26 106.287 13.01 106.287 13.97V23H100.407V6.17H106.287V8.57C106.807 7.81 107.507 7.2 108.387 6.74C109.267 6.26 110.277 6.02 111.417 6.02ZM120.013 14.57C120.013 12.83 120.323 11.31 120.943 10.01C121.583 8.71 122.453 7.71 123.553 7.01C124.653 6.31 125.873 5.96 127.213 5.96C128.293 5.96 129.253 6.19 130.093 6.65C130.953 7.09 131.623 7.7 132.103 8.48V0.8H138.013V23H132.103V20.66C131.643 21.44 130.993 22.06 130.153 22.52C129.313 22.98 128.323 23.21 127.183 23.21C125.843 23.21 124.623 22.86 123.523 22.16C122.443 21.46 121.583 20.46 120.943 19.16C120.323 17.84 120.013 16.31 120.013 14.57ZM132.133 14.57C132.133 13.49 131.833 12.64 131.233 12.02C130.653 11.4 129.933 11.09 129.073 11.09C128.193 11.09 127.463 11.4 126.883 12.02C126.303 12.62 126.013 13.47 126.013 14.57C126.013 15.65 126.303 16.51 126.883 17.15C127.463 17.77 128.193 18.08 129.073 18.08C129.933 18.08 130.653 17.77 131.233 17.15C131.833 16.53 132.133 15.67 132.133 14.57Z" fill="#6A2346"/>
</svg>
