<svg width="29" height="24" viewBox="0 0 29 24" fill="none" xmlns="http://www.w3.org/2000/svg">
<path fill-rule="evenodd" clip-rule="evenodd" d="M28.8799 12C28.8799 18.6274 22.6119 24 14.8799 24C7.14788 24 0.879883 18.6274 0.879883 12C0.879883 5.37261 7.14788 0 14.8799 0C22.6119 0 28.8799 5.37261 28.8799 12ZM18.2443 7.54168C20.1917 8.11488 21.6162 8.9732 21.3368 10.5706C21.1338 11.7402 20.3745 12.306 19.3656 12.504C20.7498 13.1193 21.2215 14.2869 20.7832 15.6987C19.9509 17.7305 17.9727 17.9015 15.3415 17.4769L14.7026 19.661L13.1603 19.3323L13.7905 17.1775C13.3906 17.0927 12.982 17.002 12.561 16.9051L11.9282 19.0705L10.3877 18.7419L11.0257 16.5533L7.91911 15.8841L8.6854 14.376C8.6854 14.376 9.82261 14.6333 9.80679 14.6145C10.2435 14.7069 10.4378 14.4638 10.5143 14.3025L12.2455 8.37449C12.2648 8.09464 12.1515 7.74196 11.5266 7.60842C11.5504 7.59421 10.4062 7.37062 10.4062 7.37062L10.8166 5.96385L13.9275 6.62183L14.5603 4.45804L16.1017 4.78665L15.4821 6.90771C15.897 6.98796 16.3135 7.06972 16.7186 7.156L17.3338 5.04846L18.8761 5.37707L18.2443 7.54168ZM14.5545 11.1505C15.6051 11.3892 17.8913 11.9088 18.2898 10.5466C18.6963 9.153 16.4752 8.73207 15.3877 8.52601C15.2645 8.50263 15.1558 8.48201 15.0671 8.4631L14.299 11.0936C14.3722 11.1091 14.4582 11.1286 14.5545 11.1505ZM13.3632 15.3873C14.6215 15.6714 17.3736 16.2928 17.8116 14.7918C18.2598 13.2572 15.5914 12.7459 14.2895 12.4966C14.144 12.4687 14.0156 12.4441 13.9105 12.4217L13.0633 15.3208C13.1495 15.3391 13.2503 15.3618 13.3632 15.3873Z" fill="white"/>
</svg>
